<?xml version="1.0" encoding="UTF-8" standalone="no"?>
<!DOCTYPE svg PUBLIC "-//W3C//DTD SVG 1.1//EN" "http://www.w3.org/Graphics/SVG/1.1/DTD/svg11.dtd">
<svg width="100%" height="100%" viewBox="0 0 474 416" version="1.1" xmlns="http://www.w3.org/2000/svg" xmlns:xlink="http://www.w3.org/1999/xlink" xml:space="preserve" xmlns:serif="http://www.serif.com/" style="fill-rule:evenodd;clip-rule:evenodd;stroke-linejoin:round;stroke-miterlimit:1.41421;">
    <g id="ArtBoard1" transform="matrix(0.958415,0,0,0.934973,-70.5562,-39.4045)">
        <rect x="73.618" y="42.145" width="493.675" height="444.098" style="fill:none;"/>
        <g id="Layer_1" transform="matrix(1.04339,0,0,1.06955,-23.8767,-43.316)">
            <path d="M345,419.4C354.2,418.8 362.6,422.8 367.9,429.3C369.4,431.1 369.9,432.7 371.1,434.3C372.4,436 374.5,437.2 376.9,437.2C382.9,437.2 386.1,430.5 382.8,425.8C375.2,412.8 360.7,404.2 344.3,405.2C323.7,406.4 306.9,423 305.4,443.7C303.7,468 322.9,488.3 346.9,488.3C361.5,488.3 374.3,480.8 381.7,469.4C383,467.9 383.7,465.8 383.3,463.6C382.8,460.6 380.4,458.2 377.5,457.7C374.4,457.1 371.6,458.6 370.1,460.9C369.6,461.7 369.4,462.4 368.7,463.2C363.7,469.8 355.8,474.1 346.9,474.1C331.2,474.1 318.6,460.9 319.6,445C320.4,431.3 331.4,420.3 345,419.4Z" style="fill:rgb(190,0,255);fill-rule:nonzero;"/>
            <path d="M469.4,402.8C465.3,402.8 461.4,404.1 457.9,406.3C455.9,407.6 454.1,409.2 452.4,410.9L452.2,411.1L452.1,410.7C451.6,407.3 448.6,404.6 445,404.6C442.2,404.6 439.8,406.2 438.6,408.5C437.6,410.5 437.6,412.2 437.6,414.3L437.6,474C437.6,478.6 438.9,483.8 445,483.8C450.8,483.8 452.4,478.9 452.4,474.3L452.4,471.2L452.4,450.2C452.4,447.5 452.5,444.7 452.7,442C452.9,438.9 453.1,434.5 454.1,431.2C455.2,427.3 457,422.9 460.2,420.2C462.4,418.3 464.9,416.9 467.8,416.9C471.4,416.9 472.1,419.3 476.3,418.4C479.6,417.7 482.1,414.8 482.1,411.3C482.1,405.2 474.5,402.8 469.4,402.8Z" style="fill:rgb(190,0,255);fill-rule:nonzero;"/>
            <path d="M562.5,473.4L562.5,413C562.5,411.7 562.6,411 562.2,409.7C561.3,406.7 558.6,404.5 555.3,404.5C552,404.5 549.1,406.8 548.3,409.9C547.9,411.3 548,412.4 548,413.9C545.3,411.1 542.1,408.7 538.6,406.8C533.1,403.9 527.1,402.7 520.9,402.7C509.1,402.7 499.1,407.2 491,415.9C484.1,423.3 480.2,433 480.1,443.1C479.9,454.9 483.8,465.1 491.9,473.4C499.7,481.4 509.4,485.6 520.6,485.6C524.8,485.6 529,485 532.9,483.7C537.1,482.4 543.4,480 543.4,474.8C543.4,471.5 541,468.6 537.7,468.2C534.8,467.8 533.6,469.1 531.5,469.9C528.2,471.2 524.7,471.8 521.1,471.7C517.5,471.6 514,470.8 510.7,469.3C505.3,466.8 501.2,462.9 498.4,457.9C496.1,453.8 494.7,449.1 494.7,444.3C494.7,439.3 495.9,434.6 498.4,430.3C501.7,424.4 506.6,420.2 513.5,417.9C515.2,417.3 517,417 518.7,416.8C527.5,416.1 534.8,418.5 540.7,424.6C545.4,429.4 547.8,435 548.4,441.5L548.5,441.5L548.5,445L548.7,473.5C548.7,475.2 548.4,477 549,478.6C549.9,481.4 552.5,483.4 555.6,483.4C558.8,483.4 561.5,481.2 562.3,478.3C562.7,477 562.5,474.9 562.5,473.4Z" style="fill:rgb(190,0,255);fill-rule:nonzero;"/>
            <path d="M166,451.8C165,454.6 164.4,456.8 163.1,459.4C160.8,463.9 157.2,467.8 152.5,470.5C140.4,477.5 125.2,474.2 117,463.2L164,436.1L168.3,433.6C171.2,431.9 173.9,430.8 173.9,426.7C173.9,425.1 173.3,423.6 172.4,422.5C160.1,405.6 136.7,400.3 118.2,411C103.9,419.2 96.4,434.6 97.6,450L99.1,458.4C100,461.6 101.3,464.6 103,467.6C114.4,487.4 139.8,494.2 159.6,482.8C168.8,477.5 177.8,466.8 179.1,456C179.9,449.1 170,444.5 166,451.8ZM125.1,423.2C135.1,417.4 147.3,418.7 155.8,425.5L113,450.2C111.6,438 113.6,429.8 125.1,423.2Z" style="fill:rgb(190,0,255);fill-rule:nonzero;"/>
            <path d="M426.1,404.7C425.2,404.6 424.1,404.6 423.2,404.6L416.6,404.6L416.6,385.2C416.6,384.5 416.6,383.9 416.5,383.2C416.1,379.7 413,376.9 409.4,376.9C405.8,376.9 402.7,379.6 402.3,383.1C402.2,383.8 402.2,384.4 402.2,385.1L402.2,404.6C400,404.6 397.9,404.6 395.7,404.6C395.7,404.6 395,404.6 394.9,404.7C391.7,405.1 389.2,407.9 389.2,411.2C389.2,414.5 391.6,417.2 394.7,417.7C396.9,418.1 400,417.8 402.2,417.8L402.2,475.9C402.2,476.5 402.2,477.1 402.3,477.8C402.8,481.3 405.8,483.9 409.4,483.9C413,483.9 415.9,481.3 416.5,477.9C416.6,477.1 416.6,476.3 416.6,475.5L416.6,417.9L423.5,417.9C424.3,417.9 425.3,417.9 426.1,417.8C429.3,417.3 431.7,414.6 431.7,411.3C431.8,407.9 429.3,405.1 426.1,404.7Z" style="fill:rgb(190,0,255);fill-rule:nonzero;"/>
            <path d="M285,451.8C284,454.6 283.4,456.8 282.1,459.4C279.8,463.9 276.2,467.8 271.5,470.5C259.4,477.5 244.2,474.2 236,463.2L283,436.1L287.4,433.6C290.3,431.9 293,430.8 293,426.7C293,425.1 292.4,423.6 291.5,422.5C279.2,405.6 255.8,400.3 237.3,411C223.1,419.2 215.5,434.6 216.7,450L218.2,458.4C219.1,461.6 220.4,464.6 222.1,467.6C233.5,487.4 258.9,494.2 278.7,482.8C287.9,477.5 296.9,466.8 298.2,456C298.9,449.1 289,444.5 285,451.8ZM244.1,423.2C254.1,417.4 266.3,418.7 274.8,425.5L232,450.2C230.6,438 232.6,429.8 244.1,423.2Z" style="fill:rgb(190,0,255);fill-rule:nonzero;"/>
            <path d="M198,375.9C194.4,375.9 191.3,378.6 190.9,382.1C190.9,382.5 190.8,382.7 190.8,383.1L190.8,476.6C190.8,477.2 190.9,477.7 191,478.2C191.7,481.4 194.6,483.8 198,483.8C201.3,483.8 204.1,481.6 205,478.5C205.2,477.9 205.3,477.2 205.3,476.6L205.3,383.1C205.3,382.7 205.3,382.3 205.2,381.9C204.6,378.5 201.6,375.9 198,375.9Z" style="fill:rgb(190,0,255);fill-rule:nonzero;"/>
            <circle cx="329.9" cy="211.7" r="125" style="fill:rgb(190,0,255);"/>
            <path d="M331.2,310.2C328.1,309.7 325.5,312.3 326,315.4C326.3,317.3 327.9,318.9 329.8,319.2C332.9,319.7 335.5,317.1 335,314C334.6,312 333.1,310.5 331.2,310.2Z" style="fill:white;fill-rule:nonzero;"/>
            <path d="M238.4,163.8C240.8,165.7 244.4,164.8 245.5,161.9C246.2,160.1 245.6,158 244.1,156.7C241.7,154.7 238.1,155.7 237,158.6C236.3,160.5 236.9,162.6 238.4,163.8Z" style="fill:white;fill-rule:nonzero;"/>
            <path d="M239.7,259C236.8,260.1 235.9,263.7 237.8,266.1C239,267.6 241.2,268.2 243,267.5C245.9,266.4 246.9,262.8 244.9,260.4C243.6,258.8 241.5,258.3 239.7,259Z" style="fill:white;fill-rule:nonzero;"/>
            <path d="M421.2,164.5C424.1,163.4 425.1,159.8 423.1,157.4C421.9,155.9 419.8,155.3 417.9,156C415,157.1 414,160.7 416,163.1C417.3,164.7 419.4,165.2 421.2,164.5Z" style="fill:white;fill-rule:nonzero;"/>
            <path d="M329.7,113.3C332.8,113.8 335.4,111.2 334.9,108.1C334.6,106.2 333,104.6 331.1,104.3C328,103.8 325.4,106.4 325.9,109.5C326.2,111.4 327.8,113 329.7,113.3Z" style="fill:white;fill-rule:nonzero;"/>
            <path d="M411.7,258.6C414,254.6 418.9,253 423.1,254.7L423.1,168.7C418.9,170.4 414.1,168.8 411.7,164.8C409.4,160.8 410.4,155.8 414,153L339.5,110C338.9,114.5 335.1,117.9 330.4,117.9C325.8,117.9 322,114.5 321.3,110L246.8,153C250.3,155.8 251.4,160.8 249.1,164.8C246.8,168.8 241.9,170.4 237.7,168.7L237.7,254.7C241.9,253 246.7,254.6 249.1,258.6C251.4,262.6 250.4,267.6 246.8,270.4L321.3,313.4C321.9,308.9 325.7,305.5 330.4,305.5C335,305.5 338.9,308.9 339.5,313.4L414,270.4C410.4,267.7 409.4,262.6 411.7,258.6ZM348,245.5C356.3,240.7 362.2,233.2 365,224.8C369.4,211.9 389.3,219.1 381.9,235.9C381.8,236.1 381.8,236.2 381.7,236.4L406.2,250.5C408.3,251.7 409,254.4 407.8,256.5C406.6,258.6 403.9,259.3 401.8,258.1L377.5,244.1C372.7,251.5 366.3,258 358.1,262.7C350.8,266.9 343.2,269.4 335.2,270.2L335.2,296.5C335.2,298.2 334.3,299.9 332.8,300.7C329.7,302.3 326.2,300 326.2,296.9L326.2,270.5C309.2,269.6 291.7,260.8 281.1,245.4L259,258C256.9,259.2 254.2,258.5 253,256.4C251.8,254.3 252.5,251.6 254.6,250.4L276.7,237.7C275.2,234.7 274.1,231.6 273.1,228.5L271,216.8C270.2,206.2 272.4,195.5 277.2,186.1L254.8,173.2C253,172.2 252,170 252.7,168C253.6,165.3 256.7,164.2 259,165.6L281.7,178.7C286.4,172.2 292.5,166.5 299.9,162.3C308.2,157.5 317.2,155 326.2,154.6L326.2,127.2C326.2,125.5 327.1,123.8 328.6,123C331.7,121.4 335.2,123.7 335.2,126.8L335.2,154.7C351.2,156.4 367.2,165.2 377.1,179.9L401.9,165.5C404.2,164.2 407.2,165.2 408.2,167.9C408.9,169.9 407.9,172 406.1,173.1L372.4,192.6C372.3,192.7 372.1,192.8 372,192.8L364,197.4L347.3,207.1L298.3,235.4C309.7,250.6 331.1,255.3 348,245.5Z" style="fill:white;fill-rule:nonzero;"/>
            <path d="M422.5,259.7C420.1,257.8 416.5,258.7 415.4,261.6C414.7,263.4 415.3,265.5 416.8,266.8C419.2,268.7 422.8,267.8 423.9,264.9C424.6,263 424,260.9 422.5,259.7Z" style="fill:white;fill-rule:nonzero;"/>
            <path d="M309.8,179.3C293.4,188.8 291.3,200.7 291.7,217.8L352.7,182.6C340.8,173 323.8,171.2 309.8,179.3Z" style="fill:white;fill-rule:nonzero;"/>
        </g>
    </g>
</svg>
