<?xml version="1.0" encoding="UTF-8" standalone="no"?>
<!DOCTYPE svg PUBLIC "-//W3C//DTD SVG 1.1//EN" "http://www.w3.org/Graphics/SVG/1.1/DTD/svg11.dtd">
<svg width="100%" height="100%" viewBox="0 0 260 260" version="1.1" xmlns="http://www.w3.org/2000/svg" xmlns:xlink="http://www.w3.org/1999/xlink" xml:space="preserve" xmlns:serif="http://www.serif.com/" style="fill-rule:evenodd;clip-rule:evenodd;stroke-linejoin:round;stroke-miterlimit:1.41421;">
    <g id="ArtBoard1" transform="matrix(1,0,0,1,-69.7375,-69.3583)">
        <rect x="69.737" y="69.358" width="259.954" height="259.954" style="fill:none;"/>
        <g id="Layer_1" transform="matrix(1,0,0,1,0.214583,-0.664583)">
            <circle cx="199.5" cy="200" r="125" style="fill:url(#_Linear1);"/>
            <g>
                <circle cx="200" cy="302.9" r="4.5" style="fill:white;"/>
                <g transform="matrix(0.5,-0.866,0.866,0.5,-73.2079,170.271)">
                    <circle cx="110.8" cy="148.5" r="4.5" style="fill:white;"/>
                </g>
                <g transform="matrix(0.8661,-0.4999,0.4999,0.8661,-110.871,89.0922)">
                    <circle cx="110.8" cy="251.5" r="4.5" style="fill:white;"/>
                </g>
                <g transform="matrix(0.866,-0.5001,0.5001,0.866,-35.5254,164.506)">
                    <circle cx="289.2" cy="148.5" r="4.5" style="fill:white;"/>
                </g>
                <circle cx="200" cy="97.1" r="4.5" style="fill:white;"/>
                <path d="M281.2,246.9C283.5,242.9 288.4,241.3 292.6,243L292.6,157C288.4,158.7 283.6,157.1 281.2,153.1C278.9,149.1 279.9,144.1 283.5,141.3L209,98.3C208.4,102.8 204.6,106.2 199.9,106.2C195.3,106.2 191.5,102.8 190.8,98.3L116.3,141.3C119.8,144.1 120.9,149.1 118.6,153.1C116.3,157.1 111.4,158.7 107.2,157L107.2,243C111.4,241.3 116.2,242.9 118.6,246.9C120.9,250.9 119.9,255.9 116.3,258.7L190.8,301.7C191.4,297.2 195.2,293.8 199.9,293.8C204.5,293.8 208.4,297.2 209,301.7L283.5,258.7C280,255.9 278.9,250.9 281.2,246.9ZM217.6,233.8C225.9,229 231.8,221.5 234.6,213.1C239,200.2 258.9,207.4 251.5,224.2C251.4,224.4 251.4,224.5 251.3,224.7L275.8,238.8C277.9,240 278.6,242.7 277.4,244.8C276.2,246.9 273.5,247.6 271.4,246.4L247.1,232.4C242.3,239.8 235.9,246.3 227.7,251C220.4,255.2 212.8,257.7 204.8,258.5L204.8,285C204.8,287.4 202.7,289.4 200.3,289.4C197.9,289.4 195.8,287.4 195.8,285L195.8,258.6C178.8,257.7 161.3,248.9 150.7,233.5L128.6,246.3C126.5,247.5 123.8,246.8 122.6,244.7C121.4,242.6 122.1,239.9 124.2,238.7L146.3,226C144.8,223 143.7,219.9 142.7,216.8L140.6,205.1C139.8,194.5 142,183.8 146.8,174.4L124.2,161.4C122.1,160.2 121.4,157.5 122.6,155.4C123.8,153.3 126.5,152.6 128.6,153.8L151.3,166.9C156,160.4 162.1,154.7 169.5,150.5C177.8,145.7 186.8,143.2 195.8,142.8L195.8,115C195.8,112.6 197.9,110.6 200.3,110.6C202.7,110.6 204.8,112.6 204.8,115L204.8,142.9C220.8,144.6 236.8,153.4 246.7,168.1L271.5,153.7C273.6,152.5 276.2,153.2 277.4,155.3C278.6,157.4 277.9,160.1 275.8,161.3L242,180.8C241.9,180.9 241.7,181 241.6,181L233.6,185.6L216.9,195.3L167.9,223.6C179.3,238.9 200.6,243.5 217.6,233.8Z" style="fill:white;fill-rule:nonzero;"/>
                <g transform="matrix(0.5,-0.866,0.866,0.5,-73.214,376.137)">
                    <circle cx="289.2" cy="251.5" r="4.5" style="fill:white;"/>
                </g>
                <path d="M179.4,167.5C163,177 160.9,188.9 161.3,206L222.3,170.8C210.4,161.2 193.4,159.5 179.4,167.5Z" style="fill:white;fill-rule:nonzero;"/>
            </g>
        </g>
    </g>
    <defs>
        <linearGradient id="_Linear1" x1="0" y1="0" x2="1" y2="0" gradientUnits="userSpaceOnUse" gradientTransform="matrix(1.53081e-14,250,-250,1.53081e-14,199.5,75)"><stop offset="0" style="stop-color:rgb(190,0,255);stop-opacity:1"/><stop offset="1" style="stop-color:rgb(166,24,215);stop-opacity:1"/></linearGradient>
    </defs>
</svg>
